<?xml version="1.0" encoding="UTF-8"?> <svg xmlns="http://www.w3.org/2000/svg" id="Layer_2" data-name="Layer 2" viewBox="0 0 776.94 98.12" width="800px" height="140px"><defs><style>.cls-1{fill:#353736;}.cls-2{fill:#868d92;}.cls-3{fill:#f36e24;}</style></defs><path class="cls-1" d="M83.43,77.18c0,17.48-10.12,26.29-26.58,26.29-16.62,0-26.74-9.35-26.74-27V22.57H11.53V77.18c0,27.51,17.52,41.74,45,41.74,27.65,0,45.47-14.23,45.47-42.55V22.57H83.43Z" transform="translate(-11.53 -20.94)"></path><path class="cls-1" d="M438.63,22.57V88.16L382,22.57H364.76V92.16L330.54,21.89H313.32L279.5,91.35v-.21c0-12.87-8.61-19.24-21-23,7.86-3.65,15.11-9.75,15.11-21.14v-.27A20.19,20.19,0,0,0,266.51,31c-6-5.42-15.56-8.4-27.64-8.4H191.44v21A26.74,26.74,0,0,0,184,32.06c-6.8-6-17.23-9.49-30.52-9.49H106.39v94.86H125V84.36h23.26l26,33.07h66.16c13,0,23.47-2.74,30.33-8l-3.91,8h19l10.88-22.9h50l10.72,22.9H383V49.94l58.31,67.49h15.56V22.57ZM125,69.59V37.75h27c13.75,0,21.9,5.55,21.9,15.72v.27c0,9.62-8.46,15.85-21.75,15.85Zm42.75,11.93c11.56-3,20.46-9.46,23.72-19.71v49.54Zm42-44.18h26.73C248.38,37.34,255,42,255,49.4v.27c0,8.68-8,12.88-19.94,12.88H209.72Zm51.2,52.31c0,8.54-7.7,13-20.39,13H209.72v-26h29.45c14.65,0,21.75,4.74,21.75,12.74Zm42.58-9.89,18.13-37.95,18.28,38Z" transform="translate(-11.53 -20.94)"></path><path class="cls-2" d="M509.78,112.69c-25.23,0-44.72-18.7-44.72-42.69v-.27c0-23.85,19.19-42.42,44.57-42.42,15.86,0,26.43,6,35.64,14l5.59-5.15c-10.87-8.95-22.2-15.18-41.08-15.18-30.52,0-52.88,22.23-52.88,49.06v.27c0,27.24,22.36,48.79,52.57,48.79,18.74,0,30.82-6.64,42-16.53l-5.28-4.61c-10.72,9.48-21.15,14.77-36.4,14.77" transform="translate(-11.53 -20.94)"></path><polygon class="cls-2" points="621.51 45.54 553.84 45.54 553.84 1.63 545.98 1.63 545.98 96.49 553.84 96.49 553.84 52.04 621.51 52.04 621.51 96.49 629.36 96.49 629.36 1.63 621.51 1.63 621.51 45.54"></polygon><rect class="cls-2" x="640.69" y="1.63" width="7.85" height="94.86"></rect><path class="cls-2" d="M756,97.92c-10.72,9.48-21.15,14.77-36.4,14.77-25.23,0-44.71-18.7-44.71-42.69v-.27c0-23.85,19.18-42.42,44.56-42.42,15.86,0,26.43,6,35.65,14l5.59-5.15c-10.88-8.94-22.21-15.18-41.09-15.18-30.51,0-52.87,22.23-52.87,49.06v.27c0,27.24,22.36,48.79,52.57,48.79,18.73,0,30.81-6.64,42-16.54Z" transform="translate(-11.53 -20.94)"></path><rect class="cls-3" x="756.85" y="77.01" width="20.09" height="19.48"></rect></svg> 